<?xml version="1.0" encoding="utf-8"?>
<!-- Generator: Adobe Illustrator 16.0.4, SVG Export Plug-In . SVG Version: 6.00 Build 0)  -->
<!DOCTYPE svg PUBLIC "-//W3C//DTD SVG 1.1//EN" "http://www.w3.org/Graphics/SVG/1.1/DTD/svg11.dtd">
<svg version="1.1" id="VisionLogo" xmlns:serif="http://www.serif.com/"
	 xmlns="http://www.w3.org/2000/svg" xmlns:xlink="http://www.w3.org/1999/xlink" x="0px" y="0px" width="60px" height="60px"
	 viewBox="0 0 300 240" enable-background="new 0 0 300 240" xml:space="preserve">
<g>
	<path fill="#0D4666" d="M85.811,132.835c-0.007,0.002-0.007,0.002-0.013,0.002c-6.468,1.174-12.652-3.168-13.814-9.693
		c-7.744-43.541,21.041-85.395,64.169-93.31l0.012-0.002c6.468-1.18,12.654,3.147,13.83,9.672c1.174,6.524-3.119,12.774-9.585,13.96
		c-30.247,5.547-50.432,34.904-45.004,65.434C96.574,125.419,92.272,131.658,85.811,132.835"/>
	<path fill="#108992" d="M82.63,96.757c6.566,0,11.892,5.368,11.905,11.992c0.026,31.02,25.074,56.287,55.817,56.32
		c6.572,0.006,11.892,5.387,11.879,12.018c0,6.625-5.332,12-11.892,12h-0.013c-43.842-0.053-79.549-36.076-79.6-80.312
		c0-6.63,5.319-12.011,11.891-12.018H82.63z"/>
	<path fill="#F2BF00" d="M218.276,96.757h0.013c6.572,0.007,11.892,5.387,11.885,12.018c-0.051,44.236-35.752,80.26-79.588,80.312
		h-0.012c-6.573,0-11.899-5.369-11.905-12c-0.007-6.631,5.32-12.012,11.892-12.018c30.742-0.033,55.778-25.301,55.817-56.32
		C206.378,102.125,211.711,96.757,218.276,96.757"/>
	<path fill="#108992" d="M121.822,109.363c0-15.959,12.831-28.896,28.648-28.896c15.808,0,28.628,12.937,28.628,28.896
		c0,15.957-12.82,28.895-28.628,28.895C134.653,138.257,121.822,125.32,121.822,109.363"/>
	<path fill="#0D4666" d="M181.495,63.307c0-7.625,6.126-13.806,13.683-13.806c7.556,0,13.682,6.181,13.682,13.806
		s-6.126,13.806-13.682,13.806C187.621,77.113,181.495,70.932,181.495,63.307"/>
	<path fill="#0B575E" d="M168.437,175.742c0-0.006,0-0.006-0.001-0.014c-0.624-6.59-6.517-11.447-13.163-10.842
		c-3.386,0.309-6.728,0.291-10.005,0.016c-0.088-0.008-0.175-0.01-0.263-0.016c-6.653-0.561-12.503,4.322-13.071,10.916
		l-0.001,0.014c-0.555,6.514,4.263,12.236,10.792,12.934c0.404,0.037,0.81,0.072,1.216,0.104c0.856,0.062,1.71,0.117,2.561,0.154
		c0.395,0.018,0.791,0.029,1.187,0.041c1.093,0.031,2.182,0.045,3.266,0.031c0.177-0.002,0.355-0.006,0.533-0.008
		c2.223-0.043,4.425-0.191,6.608-0.41C164.438,187.771,169.036,182.136,168.437,175.742"/>
	<path fill="#02292B" d="M94.453,108.734c0.013-6.662-5.305-12.062-11.894-12.127c-6.588,0.065-11.912,5.466-11.906,12.127
		c0.007,6.658,5.324,12.043,11.906,12.109C89.129,120.777,94.453,115.386,94.453,108.734"/>
</g>
</svg>
